<?xml version="1.0" standalone="no"?>
<!DOCTYPE svg PUBLIC "-//W3C//DTD SVG 20010904//EN"
 "http://www.w3.org/TR/2001/REC-SVG-20010904/DTD/svg10.dtd">
<svg version="1.0" xmlns="http://www.w3.org/2000/svg"
 width="280.000000pt" height="280.000000pt" viewBox="0 0 280.000000 280.000000"
 preserveAspectRatio="xMidYMid meet">
<metadata>
Created by potrace 1.11, written by Peter Selinger 2001-2013
</metadata>
<g transform="translate(0.000000,280.000000) scale(0.100000,-0.100000)"
fill="#000000" stroke="none">
<path d="M1405 2538 c-11 -34 -35 -58 -59 -58 -12 0 -68 14 -126 31 -122 36
-294 49 -395 30 -92 -17 -176 -63 -235 -129 -43 -48 -98 -140 -107 -177 -1 -5
-8 -40 -15 -77 -23 -125 19 -273 101 -355 92 -94 123 -113 387 -248 180 -92
246 -134 272 -173 22 -34 26 -213 6 -254 -64 -127 -272 -163 -435 -77 -118 63
-194 167 -253 347 -30 93 -32 96 -63 98 -22 2 -32 -3 -35 -14 -4 -15 -3 -547
1 -563 0 -3 16 -6 34 -5 27 1 35 8 50 39 23 49 55 51 167 12 93 -33 172 -47
264 -47 101 -1 180 8 238 26 l45 13 -2 -246 c-1 -182 -5 -253 -15 -273 -16
-33 -77 -64 -140 -72 -25 -3 -45 -5 -46 -5 0 -1 0 -14 0 -31 0 -20 5 -30 15
-31 21 -1 792 -1 809 0 9 1 12 12 10 32 -3 31 -4 31 -68 35 -83 6 -121 18
-151 50 l-24 26 -3 305 -3 305 48 -3 c59 -3 150 -35 178 -63 50 -48 91 -134
102 -210 9 -69 18 -83 50 -81 l28 1 1 388 c1 362 -1 388 -17 397 -14 7 -21 5
-29 -10 -5 -11 -10 -25 -10 -30 0 -6 -23 -58 -50 -115 -67 -136 -108 -167
-247 -182 l-53 -6 -2 128 c-1 71 -2 183 -1 249 1 66 2 139 3 161 0 48 23 82
60 90 30 7 215 6 250 -1 14 -3 41 -8 60 -11 55 -9 135 -49 170 -85 38 -39 92
-151 110 -225 10 -46 15 -52 41 -56 17 -3 32 -2 34 2 2 3 4 110 4 238 1 214
-1 232 -17 233 -9 0 -267 1 -572 1 l-555 1 -160 81 c-214 109 -282 156 -307
213 -21 48 -26 131 -9 174 17 46 69 96 123 119 43 18 64 21 127 17 91 -6 94
-7 151 -35 101 -49 222 -207 261 -339 11 -40 14 -43 48 -43 l37 0 -1 252 0
252 -37 4 c-31 3 -37 0 -43 -20z"/>
</g>
</svg>
